:SAMPLES-PER-SECOND 30
:FULLY-SPECIFIED
:DEGREES
47
root  -22.3167 38.0805 -2.32209 121.901 -84.3907 -123.779
RightUpLeg  4.56328 -14.98 0.961175
RightLeg  31.8421 -3.57494 -2.60566
RightFoot  -24.6214 0.504854 5.88678
RightToes  0.00048216 0.542163 -0.142577
Spine  22.2761 -0.566945 11.9076
Spine1  14.6567 2.85114 -3.17968
HEad  5.02611 2.31283 -5.41023
LeftShoulder1  9.55336 -15.3167 -44.1974
LeftArm  -22.1606 -1.5444 -21.2268
LeftForeArm  47.7028 -66.11 -20.5148
LeftHand  -0.25398 0.0180481 5.50724
RightShoulder  5.14791 10.6969 30.2895
RightArm  -11.7051 39.4699 21.0376
RightForeArm  -3.2493 24.8238 5.48102
RightHand  -1.76252 5.18836 -19.5348
LeftUpLeg  -25.1097 7.76382 5.14037
LeftLeg  -2.32813 32.5908 -8.40108
LeftFoot  0.250236 0.021516 -0.428516
LeftToes  1.06245e-005 4.65856e-005 -8.18504e-006
48
root  -23.714 37.6797 -2.39373 119.328 -84.8163 -121.323
RightUpLeg  1.85148 -16.0047 -0.572849
RightLeg  41.8025 -2.50855 -2.76611
RightFoot  -20.1693 0.683488 10.8048
RightToes  0.00048216 0.542163 -0.142577
Spine  24.6117 -0.391887 9.15771
Spine1  13.9572 2.26764 -1.84182
HEad  4.21366 3.11757 -4.90204
LeftShoulder1  9.70819 -15.5944 -44.2619
LeftArm  -22.6237 -2.67748 -21.0922
LeftForeArm  46.3748 -65.4632 -19.9581
LeftHand  -0.25398 0.0180481 5.50724
RightShoulder  5.10678 10.7382 29.889
RightArm  -10.2448 41.3763 22.6577
RightForeArm  -2.60158 26.2208 5.76869
RightHand  -1.75187 5.16665 -19.4594
LeftUpLeg  -28.2121 12.4743 1.87435
LeftLeg  5.72138 26.899 -4.11494
LeftFoot  6.12755 -0.979617 5.98169
LeftToes  1.06245e-005 4.65856e-005 -8.18504e-006
49
root  -24.8933 37.2647 -2.43834 115.784 -86.1545 -117.647
RightUpLeg  -5.28628 -17.6751 -2.58785
RightLeg  56.3681 -2.67355 -4.83717
RightFoot  -8.6674 -0.235403 10.3524
RightToes  0.00048216 0.542163 -0.142577
Spine  28.2826 -0.264576 6.35332
Spine1  12.3874 1.46239 -0.572728
HEad  2.31716 3.35 -4.65769
LeftShoulder1  9.98687 -16.0455 -44.4915
LeftArm  -22.6956 -5.50564 -20.6307
LeftForeArm  44.5281 -63.6122 -18.3147
LeftHand  -0.25398 0.0180481 5.50724
RightShoulder  5.01321 10.7795 29.1146
RightArm  -9.71516 42.7493 24.6275
RightForeArm  -1.49989 28.1153 6.15878
RightHand  -1.7896 5.36984 -19.505
LeftUpLeg  -33.9604 23.4633 -7.36157
LeftLeg  13.8571 11.127 0.905081
LeftFoot  11.4683 -2.5303 12.2471
LeftToes  1.06245e-005 4.65856e-005 -8.18504e-006
50
root  -25.7446 36.8684 -2.48045 99.9977 -88.2312 -101.351
RightUpLeg  -15.1713 -18.4899 -4.3577
RightLeg  69.4341 -2.02081 -6.62441
RightFoot  2.90681 -0.651426 5.27789
RightToes  0.00048216 0.542163 -0.142577
Spine  33.0263 -0.296462 4.13542
Spine1  11.2347 0.99063 -0.755032
HEad  -0.781245 2.7717 -4.8846
LeftShoulder1  10.1991 -16.6537 -44.0431
LeftArm  -22.2876 -10.8553 -20.733
LeftForeArm  42.1312 -60.0851 -15.6703
LeftHand  -0.25398 0.0180481 5.50724
RightShoulder  4.85812 10.7919 27.9703
RightArm  -10.0836 44.2501 26.1103
RightForeArm  -1.31448 29.7431 6.5456
RightHand  -1.99166 6.06085 -20.3701
LeftUpLeg  -38.6296 26.0407 -12.989
LeftLeg  20.0426 5.46082 2.88064
LeftFoot  11.8479 -3.35695 15.9442
LeftToes  1.06245e-005 4.65856e-005 -8.18504e-006
51
root  -26.3942 36.6913 -2.52855 49.1792 -89.3581 -49.6408
RightUpLeg  -25.2622 -18.149 -4.62485
RightLeg  76.5557 -0.873808 -5.66692
RightFoot  6.68094 -0.175804 1.25354
RightToes  0.00048216 0.542163 -0.142577
Spine  37.9088 -0.645968 3.83085
Spine1  11.3311 1.20894 -2.10529
HEad  -4.84159 1.45707 -5.60339
LeftShoulder1  10.2005 -17.3371 -42.5125
LeftArm  -21.7341 -18.7791 -22.0622
LeftForeArm  39.8087 -55.0281 -12.7122
LeftHand  -0.25398 0.0180481 5.50724
RightShoulder  4.62856 10.777 26.3438
RightArm  -11.0554 46.6959 26.3734
RightForeArm  -2.2037 29.9439 6.64336
RightHand  -2.28608 6.99976 -21.5894
LeftUpLeg  -40.4337 25.226 -14.3343
LeftLeg  23.944 5.82941 3.1561
LeftFoot  9.15483 -3.14843 16.9474
LeftToes  1.06245e-005 4.65856e-005 -8.18504e-006
52
root  -27.004 36.7889 -2.6126 20.7676 -88.7895 -19.986
RightUpLeg  -33.6713 -17.0707 -3.4243
RightLeg  76.0872 -0.614321 -4.26151
RightFoot  4.36532 -0.126958 1.24466
RightToes  0.00048216 0.542163 -0.142577
Spine  42.4504 -1.12986 5.17754
Spine1  12.1208 1.84308 -3.38507
HEad  -9.50572 -0.363054 -6.36012
LeftShoulder1  10.018 -18.075 -40.1422
LeftArm  -21.5656 -28.0679 -24.2589
LeftForeArm  38.1115 -49.3551 -10.1738
LeftHand  -0.25398 0.0180481 5.50724
RightShoulder  4.28797 10.7297 23.9522
RightArm  -12.157 50.3406 25.5294
RightForeArm  -3.30386 27.9713 6.184
RightHand  -2.44426 7.56028 -22.0792
LeftUpLeg  -41.5613 25.8774 -14.9446
LeftLeg  25.3814 4.59636 2.71176
LeftFoot  7.36159 -2.71719 16.1161
LeftToes  1.06245e-005 4.65856e-005 -8.18504e-006
53
root  -27.5767 36.9346 -2.77274 26.2065 -87.7653 -23.7299
RightUpLeg  -39.8943 -15.8112 -2.0568
RightLeg  68.9835 -1.64221 -5.32043
RightFoot  1.27455 -0.504649 4.59189
RightToes  0.00048216 0.542163 -0.142577
Spine  46.8954 -1.8392 6.62235
Spine1  12.5255 2.32204 -4.42866
HEad  -14.2155 -2.25561 -6.55971
LeftShoulder1  9.65871 -18.8873 -36.982
LeftArm  -22.0095 -36.9486 -26.6232
LeftForeArm  37.1979 -44.0077 -8.26786
LeftHand  -0.25398 0.0180481 5.50724
RightShoulder  3.88894 10.7237 20.9957
RightArm  -12.9373 54.8092 23.8432
RightForeArm  -3.87565 23.6036 5.4668
RightHand  -2.27818 7.17858 -21.2302
LeftUpLeg  -43.1666 26.1332 -15.1504
LeftLeg  26.2513 3.00686 1.95315
LeftFoot  7.08637 -2.53483 15.2639
LeftToes  1.06245e-005 4.65856e-005 -8.18504e-006
54
root  -28.1563 37.0748 -2.98646 28.9608 -86.0918 -24.4104
RightUpLeg  -44.1867 -14.524 -0.846476
RightLeg  57.3249 -3.99445 -7.13859
RightFoot  0.192579 -0.544995 5.39476
RightToes  0.00048216 0.542163 -0.142577
Spine  50.9269 -3.03052 8.19757
Spine1  12.4653 2.49129 -5.52093
HEad  -18.5823 -3.80681 -6.12175
LeftShoulder1  9.06651 -19.7698 -32.8595
LeftArm  -23.0528 -44.7447 -28.6442
LeftForeArm  36.9022 -39.3056 -6.84591
LeftHand  -0.25398 0.0180481 5.50724
RightShoulder  3.54167 10.9257 17.9994
RightArm  -16.7955 59.61 20.2579
RightForeArm  -1.11209 16.9338 5.99051
RightHand  -1.73729 5.50657 -18.6664
LeftUpLeg  -45.132 25.6601 -15.1772
LeftLeg  27.0865 1.8467 1.36915
LeftFoot  6.67499 -2.45342 15.1258
LeftToes  1.06245e-005 4.65856e-005 -8.18504e-006
55
root  -28.8063 37.136 -3.28228 27.7674 -83.9779 -20.9487
RightUpLeg  -46.3391 -13.0014 -0.648169
RightLeg  43.0067 -4.72443 -5.19688
RightFoot  0.443498 -0.51197 4.96946
RightToes  0.00048216 0.542163 -0.142577
Spine  54.2528 -4.34152 9.37675
Spine1  12.6204 2.46046 -6.38493
HEad  -22.6805 -4.97661 -5.42309
LeftShoulder1  8.29348 -20.5905 -28.2531
LeftArm  -24.6573 -52.0232 -29.7643
LeftForeArm  36.5072 -35.0288 -5.72223
LeftHand  -0.25398 0.0180481 5.50724
RightShoulder  3.18424 11.303 14.6825
RightArm  -26.696 64.0152 13.7553
RightForeArm  5.86035 9.20859 7.31633
RightHand  -0.979784 2.79604 -13.9824
LeftUpLeg  -47.2029 24.6787 -15.2504
LeftLeg  28.2669 0.840251 0.83146
LeftFoot  5.48617 -2.27445 15.0529
LeftToes  1.06245e-005 4.65856e-005 -8.18504e-006
56
root  -29.6078 36.9914 -3.75432 19.8648 -81.4502 -10.7287
RightUpLeg  -47.0729 -11.7443 -2.20667
RightLeg  30.4061 -0.951714 -0.832906
RightFoot  2.79434 -0.91836 7.46187
RightToes  0.00048216 0.542163 -0.142577
Spine  57.8646 -5.31871 9.0775
Spine1  11.5651 2.08857 -6.62034
HEad  -26.0673 -5.90955 -4.57254
LeftShoulder1  7.53609 -21.0982 -24.3152
LeftArm  -26.2497 -58.9061 -29.2757
LeftForeArm  34.7673 -30.6219 -4.74947
LeftHand  -0.25398 0.0180481 5.50724
RightShoulder  2.72829 11.5489 10.9473
RightArm  -34.4104 66.8957 7.00304
RightForeArm  8.93781 3.22397 6.64666
RightHand  -0.452967 0.669877 -8.92979
LeftUpLeg  -49.7644 23.1328 -15.8785
LeftLeg  30.892 -0.456057 0.0527683
LeftFoot  4.03814 -1.99266 14.4893
LeftToes  1.06245e-005 4.65856e-005 -8.18504e-006
57
root  -30.4731 36.6947 -4.35776 14.3779 -78.6331 -2.95528
RightUpLeg  -49.0152 -11.258 -3.51717
RightLeg  25.9135 3.59147 1.75324
RightFoot  6.99988 -1.3001 8.44761
RightToes  0.00048216 0.542163 -0.142577
Spine  61.2445 -5.80904 8.56516
Spine1  9.72809 1.48458 -6.03542
HEad  -28.8797 -7.07355 -3.47073
LeftShoulder1  7.01071 -21.5521 -21.5192
LeftArm  -28.1927 -65.9438 -26.0315
LeftForeArm  31.1074 -25.3058 -3.81895
LeftHand  -0.25398 0.0180481 5.50724
RightShoulder  2.26285 11.4547 7.59776
RightArm  -42.7227 68.1585 0.89268
RightForeArm  8.77024 -0.401317 5.27619
RightHand  -0.344071 0.368852 -7.02783
LeftUpLeg  -52.9327 21.3113 -16.5037
LeftLeg  34.6731 -1.47574 -0.727547
LeftFoot  2.81784 -1.76046 13.9655
LeftToes  1.06245e-005 4.65856e-005 -8.18504e-006
58
root  -31.2622 36.3268 -4.99025 14.6416 -76.1514 -0.854156
RightUpLeg  -53.3241 -11.7336 -2.61223
RightLeg  29.7856 4.82162 2.71888
RightFoot  9.72723 -0.808993 4.67392
RightToes  0.00048216 0.542163 -0.142577
Spine  63.1141 -5.85713 9.16199
Spine1  9.11351 1.34945 -5.23485
HEad  -31.6041 -8.88973 -2.24109
LeftShoulder1  6.73889 -22.7132 -19.0771
LeftArm  -34.8738 -73.0236 -17.3559
LeftForeArm  27.2802 -19.4613 -3.33741
LeftHand  -0.25398 0.0180481 5.50724
RightShoulder  1.9168 10.8353 5.62648
RightArm  -52.874 68.2613 -6.69169
RightForeArm  4.23923 -1.61959 3.92042
RightHand  -0.454884 1.02596 -8.33634
LeftUpLeg  -56.6876 19.7328 -16.5509
LeftLeg  38.6382 -1.73506 -1.10454
LeftFoot  1.61579 -1.60984 14.0184
LeftToes  1.06245e-005 4.65856e-005 -8.18504e-006
